/* XPM */
static char * top_right_active_xpm[] = {
"3 26 4 1",
" 	c None",
".	c #484848",
"+	c #343434",
"@	c #2D2D2D",
".. ",
"++.",
"@@.",
"@@.",
"@@.",
"@@.",
"@@.",
"@@.",
"@@.",
"@@.",
"@@.",
"@@.",
"@@.",
"@@.",
"@@.",
"@@.",
"@@.",
"@@.",
"@@.",
"@@.",
"@@.",
"@@.",
"@@.",
"@@.",
"@@.",
"@@."};
